<?xml version="1.0" standalone="no"?>
<!DOCTYPE svg PUBLIC "-//W3C//DTD SVG 20010904//EN"
 "http://www.w3.org/TR/2001/REC-SVG-20010904/DTD/svg10.dtd">
<svg version="1.0" xmlns="http://www.w3.org/2000/svg"
 width="771.000000pt" height="249.000000pt" viewBox="0 0 771.000000 249.000000"
 preserveAspectRatio="xMidYMid meet">

<g transform="translate(0.000000,249.000000) scale(0.100000,-0.100000)"
fill="#000000" stroke="none">
<path d="M73 1571 c-1 -454 1 -907 5 -1006 l7 -180 128 -2 c71 -1 131 -4 134
-7 3 -3 7 -62 9 -132 1 -70 7 -131 11 -135 5 -5 1580 -8 3579 -7 l3569 3 3
1007 2 1007 -137 3 -138 3 -5 134 -5 134 -3580 2 -3580 2 -2 -826z m825 57
l97 -217 3 220 2 220 78 -3 77 -3 3 -398 2 -398 -91 3 -92 3 -96 217 -96 218
-3 -220 -2 -220 -75 0 -75 0 0 400 0 401 86 -3 86 -3 96 -217z m750 140 l3
-78 -131 0 -131 0 3 -82 3 -83 103 -3 102 -3 0 -74 0 -75 -105 0 -105 0 0 -85
0 -85 130 0 130 0 0 -75 0 -75 -205 0 -205 0 0 400 0 400 203 -2 202 -3 3 -77z
m232 -243 l0 -325 95 0 95 0 0 325 0 325 74 0 c55 0 75 -4 79 -15 4 -8 5 -163
4 -344 l-2 -330 -55 -56 -54 -55 -136 0 -136 0 -57 58 -57 58 0 342 0 342 75
0 75 0 0 -325z m862 268 l58 -57 0 -125 c0 -111 -2 -127 -20 -146 l-20 -22 20
-18 c19 -17 20 -30 20 -197 l0 -178 -75 0 -75 0 0 150 0 150 -95 0 -95 0 0
-150 0 -150 -75 0 -75 0 0 400 0 400 187 0 187 0 58 -57z m579 0 l59 -56 0
-286 0 -287 -58 -57 -58 -57 -130 0 -130 0 -57 58 -57 58 0 284 0 284 57 58
57 58 129 0 128 0 60 -57z m373 -150 c32 -112 62 -203 65 -203 4 0 34 91 67
203 l60 202 82 3 82 3 0 -401 0 -400 -75 0 -75 0 -1 148 c-1 165 0 165 -49
-50 l-22 -98 -68 0 -68 0 -27 118 c-43 189 -43 189 -44 30 l-1 -148 -80 0 -80
0 0 393 c0 217 3 397 7 401 4 4 43 5 87 4 l80 -3 60 -202z m811 198 c3 -5 50
-185 104 -400 l99 -391 -78 0 c-77 0 -78 0 -84 28 -4 15 -12 44 -17 65 l-10
38 -96 -3 -96 -3 -17 -60 -17 -60 -76 -3 c-42 -2 -77 0 -77 3 0 12 201 752
210 773 9 20 17 22 79 22 38 0 72 -4 76 -9z m499 -83 c23 -51 67 -149 97 -216
l54 -124 5 214 5 213 78 3 77 3 0 -401 0 -400 -88 0 -88 0 -97 218 -96 217 -1
-217 0 -218 -80 0 -80 0 0 393 c0 217 3 397 7 400 3 4 42 7 85 7 l79 0 43 -92z
m833 30 l63 -62 0 -78 0 -78 -80 0 -80 0 0 60 0 60 -90 0 -90 0 0 -245 0 -245
90 0 90 0 0 60 0 60 80 0 80 0 0 -78 0 -78 -58 -57 -58 -57 -135 0 -135 0 -57
58 -57 58 0 279 0 279 62 63 62 63 125 0 125 0 63 -62z m551 -20 l3 -78 -126
0 -125 0 0 -85 0 -85 100 0 100 0 0 -75 0 -75 -100 0 -100 0 0 -85 0 -85 125
0 125 0 0 -75 0 -75 -205 0 -205 0 0 393 c0 217 3 397 7 401 4 3 95 5 202 4
l196 -3 3 -77z m519 20 l63 -62 0 -117 c0 -101 -3 -120 -20 -141 -19 -25 -19
-26 0 -43 19 -17 20 -32 20 -197 l0 -178 -80 0 -80 0 0 150 0 150 -90 0 -90 0
0 -150 0 -150 -80 0 -80 0 0 393 c0 217 3 397 7 400 3 4 88 7 187 7 l180 0 63
-62z m-3417 -1008 l0 -100 50 0 c28 0 50 -4 50 -10 0 -6 -28 -10 -65 -10 l-65
0 0 110 c0 91 3 110 15 110 12 0 15 -18 15 -100z m247 -5 c38 -113 38 -115 19
-115 -8 0 -17 14 -21 30 -6 28 -10 30 -50 30 -40 0 -44 -2 -50 -30 -6 -26 -35
-44 -35 -22 0 7 48 153 65 200 3 8 12 12 22 10 11 -2 27 -35 50 -103z m193 85
c24 -24 26 -53 5 -70 -14 -11 -13 -14 5 -27 24 -17 26 -60 3 -85 -12 -14 -31
-18 -79 -18 l-62 0 0 78 c0 42 2 92 4 110 5 31 6 32 54 32 37 0 55 -5 70 -20z
m185 7 c23 -18 5 -30 -27 -19 -28 10 -55 5 -61 -12 -8 -19 3 -31 50 -55 40
-20 63 -46 63 -71 0 -21 -49 -60 -75 -60 -37 0 -90 29 -77 42 7 7 17 6 31 -2
12 -6 34 -10 49 -8 21 2 28 9 30 29 2 21 -3 29 -28 39 -45 18 -80 49 -80 69 0
9 7 27 16 39 18 26 78 31 109 9z"/>
<path d="M2462 1598 l3 -93 93 -3 92 -3 0 96 0 95 -95 0 -96 0 3 -92z"/>
<path d="M3040 1445 l0 -245 95 0 95 0 0 245 0 245 -95 0 -95 0 0 -245z"/>
<path d="M4398 1440 l-26 -100 54 0 c30 0 54 1 54 3 -1 11 -49 190 -52 193 -2
2 -16 -41 -30 -96z"/>
<path d="M6630 1595 l0 -95 90 0 90 0 0 95 0 95 -90 0 -90 0 0 -95z"/>
<path d="M3672 807 c-15 -60 -16 -57 14 -57 24 0 25 2 18 33 -15 69 -20 73
-32 24z"/>
<path d="M3840 816 c0 -39 9 -43 55 -26 20 7 26 16 23 33 -2 18 -10 23 -40 25
-37 3 -38 3 -38 -32z"/>
<path d="M3840 720 c0 -36 2 -40 26 -40 35 0 64 17 64 38 0 27 -20 42 -57 42
-32 0 -33 -1 -33 -40z"/>
</g>
</svg>
